<svg width="16" height="16" viewBox="0 0 16 16" fill="none" xmlns="http://www.w3.org/2000/svg">
<path d="M12.4914 15.3579C11.6205 16.2022 10.6695 16.0689 9.75404 15.669C8.78528 15.2602 7.89651 15.2424 6.87443 15.669C5.5946 16.22 4.91914 16.06 4.1548 15.3579C-0.182392 10.8874 0.457522 4.07945 5.3813 3.83059C6.58114 3.89281 7.41658 4.48828 8.1187 4.54161C9.16745 4.3283 10.1718 3.71505 11.2916 3.79504C12.6336 3.90169 13.6468 4.43495 14.3134 5.39482C11.5405 7.05682 12.1982 10.7097 14.74 11.7317C14.2334 13.0649 13.5757 14.3892 12.4826 15.3668L12.4914 15.3579ZM8.02983 3.77727C7.89651 1.79531 9.50518 0.159978 11.3538 0C11.6116 2.29302 9.2741 3.99946 8.02983 3.77727Z" fill="white"/>
</svg>
