<svg width="16" height="16" viewBox="0 0 16 16" fill="none" xmlns="http://www.w3.org/2000/svg">
<g clip-path="url(#clip0_154_65203)">
<path fill-rule="evenodd" clip-rule="evenodd" d="M6.41896 4.90425C6.65327 5.13857 6.65327 5.51847 6.41896 5.75278L4.77656 7.39518H12.6614C12.9927 7.39518 13.2614 7.66381 13.2614 7.99518C13.2614 8.32655 12.9927 8.59518 12.6614 8.59518H4.77656L6.41896 10.2376C6.65327 10.4719 6.65327 10.8518 6.41896 11.0861C6.18464 11.3204 5.80474 11.3204 5.57043 11.0861L2.90376 8.41945C2.79124 8.30692 2.72803 8.15431 2.72803 7.99518C2.72803 7.83605 2.79124 7.68344 2.90376 7.57092L5.57043 4.90425C5.80474 4.66994 6.18464 4.66994 6.41896 4.90425Z" fill="white"/>
</g>
<defs>
<clipPath id="clip0_154_65203">
<rect width="16" height="16" fill="white"/>
</clipPath>
</defs>
</svg>
