<svg width="16" height="12" viewBox="0 0 16 12" fill="none" xmlns="http://www.w3.org/2000/svg">
<path fill-rule="evenodd" clip-rule="evenodd" d="M8.56677 1.35269C8.15517 1.27786 7.73082 1.27671 7.31868 1.34934C6.90655 1.42197 6.51705 1.56652 6.17217 1.77258C5.4753 2.18894 5.0097 2.82514 4.85213 3.52711C4.79064 3.80104 4.54744 3.9957 4.2667 3.9957C3.58562 3.9957 2.93751 4.25475 2.46369 4.70797C1.99077 5.16032 1.73033 5.76801 1.73033 6.3957C1.73033 7.0234 1.99077 7.63109 2.46369 8.08344C2.93751 8.53666 3.58562 8.7957 4.2667 8.7957C4.59807 8.7957 4.8667 9.06433 4.8667 9.3957C4.8667 9.72707 4.59807 9.9957 4.2667 9.9957C3.28415 9.9957 2.33676 9.62261 1.63422 8.95061C0.930771 8.27774 0.530334 7.35931 0.530334 6.3957C0.530334 5.4321 0.930771 4.51366 1.63422 3.8408C2.22704 3.27376 2.99419 2.91954 3.80969 2.82272C4.11838 1.96387 4.7376 1.23183 5.55668 0.742445C6.03032 0.459454 6.55837 0.264836 7.11042 0.16755C7.66245 0.0702663 8.23001 0.0717886 8.78144 0.172048C9.33287 0.272309 9.85971 0.469788 10.3316 0.755388C10.8035 1.04103 11.2126 1.4101 11.5327 1.84416C11.853 2.27841 12.0777 2.76879 12.1907 3.28788C12.2511 3.56545 12.2787 3.84746 12.2735 4.12905C13.049 4.13084 13.7924 4.43969 14.3409 4.98819C14.891 5.5383 15.2 6.2844 15.2 7.06237C15.2 7.84034 14.891 8.58644 14.3409 9.13655C13.7908 9.68666 13.0447 9.9957 12.2667 9.9957H11.6C11.2687 9.9957 11 9.72707 11 9.3957C11 9.06433 11.2687 8.7957 11.6 8.7957H12.2667C12.7264 8.7957 13.1673 8.61309 13.4924 8.28802C13.8174 7.96296 14 7.52208 14 7.06237C14 6.60266 13.8174 6.16178 13.4924 5.83672C13.1673 5.51166 12.7264 5.32904 12.2667 5.32904H11.6C11.4178 5.32904 11.2455 5.24623 11.1316 5.10397C11.0177 4.96171 10.9747 4.77542 11.0146 4.59763C11.0927 4.24947 11.0939 3.89149 11.0181 3.54299C10.9423 3.19433 10.7901 2.85892 10.567 2.55649C10.3438 2.25387 10.0535 1.98979 9.71021 1.78199C9.36681 1.57414 8.97837 1.42753 8.56677 1.35269ZM7.17577 4.97144C7.41008 4.73712 7.78998 4.73712 8.0243 4.97144L10.0243 6.97144C10.2586 7.20575 10.2586 7.58565 10.0243 7.81997C9.78998 8.05428 9.41008 8.05428 9.17577 7.81997L8.20003 6.84423V11.3957C8.20003 11.7271 7.9314 11.9957 7.60003 11.9957C7.26866 11.9957 7.00003 11.7271 7.00003 11.3957V6.84423L6.0243 7.81997C5.78998 8.05428 5.41008 8.05428 5.17577 7.81997C4.94145 7.58565 4.94145 7.20575 5.17577 6.97144L7.17577 4.97144Z" fill="white"/>
</svg>
