<svg width="24" height="24" viewBox="0 0 24 24" fill="none" xmlns="http://www.w3.org/2000/svg">
<g clip-path="url(#clip0_170_76948)">
<path fill-rule="evenodd" clip-rule="evenodd" d="M12.8501 5.73509C12.2327 5.62284 11.5961 5.62112 10.9779 5.73006C10.3597 5.83901 9.77549 6.05583 9.25816 6.36493C8.21287 6.98947 7.51446 7.94377 7.27811 8.99673C7.18588 9.40761 6.82106 9.69961 6.39996 9.69961C5.37834 9.69961 4.40617 10.0882 3.69544 10.768C2.98607 11.4465 2.59541 12.3581 2.59541 13.2996C2.59541 14.2412 2.98607 15.1527 3.69544 15.8312C4.40617 16.511 5.37834 16.8996 6.39996 16.8996C6.89701 16.8996 7.29996 17.3026 7.29996 17.7996C7.29996 18.2967 6.89701 18.6996 6.39996 18.6996C4.92613 18.6996 3.50505 18.14 2.45124 17.132C1.39606 16.1227 0.79541 14.745 0.79541 13.2996C0.79541 11.8542 1.39606 10.4765 2.45124 9.46725C3.34046 8.61669 4.49119 8.08536 5.71445 7.94014C6.17748 6.65186 7.10631 5.5538 8.33493 4.81972C9.04539 4.39524 9.83747 4.10331 10.6655 3.95738C11.4936 3.81145 12.3449 3.81374 13.1721 3.96413C13.9992 4.11452 14.7895 4.41074 15.4973 4.83914C16.2052 5.26761 16.8187 5.82121 17.299 6.47229C17.7795 7.12366 18.1165 7.85924 18.2859 8.63787C18.3765 9.05424 18.4179 9.47724 18.4101 9.89963C19.5734 9.90232 20.6885 10.3656 21.5112 11.1883C22.3364 12.0135 22.8 13.1327 22.8 14.2996C22.8 15.4666 22.3364 16.5857 21.5112 17.4109C20.6861 18.236 19.5669 18.6996 18.4 18.6996H17.4C16.9029 18.6996 16.5 18.2967 16.5 17.7996C16.5 17.3026 16.9029 16.8996 17.4 16.8996H18.4C19.0895 16.8996 19.7508 16.6257 20.2384 16.1381C20.726 15.6505 21 14.9892 21 14.2996C21 13.61 20.726 12.9487 20.2384 12.4611C19.7508 11.9735 19.0895 11.6996 18.4 11.6996H17.4C17.1266 11.6996 16.8681 11.5754 16.6973 11.362C16.5265 11.1486 16.4619 10.8692 16.5218 10.6025C16.639 10.0803 16.6408 9.54329 16.5271 9.02054C16.4133 8.49754 16.1851 7.99443 15.8504 7.54079C15.5156 7.08685 15.0802 6.69075 14.5652 6.37904C14.0501 6.06727 13.4675 5.84734 12.8501 5.73509ZM10.7636 11.1632C11.115 10.8117 11.6849 10.8117 12.0364 11.1632L15.0364 14.1632C15.3878 14.5147 15.3878 15.0845 15.0364 15.436C14.6849 15.7875 14.115 15.7875 13.7636 15.436L12.3 13.9724V20.7996C12.3 21.2967 11.897 21.6996 11.4 21.6996C10.9029 21.6996 10.5 21.2967 10.5 20.7996V13.9724L9.03635 15.436C8.68488 15.7875 8.11503 15.7875 7.76356 15.436C7.41209 15.0845 7.41209 14.5147 7.76356 14.1632L10.7636 11.1632Z" fill="white"/>
</g>
<defs>
<clipPath id="clip0_170_76948">
<rect width="24" height="24" fill="white"/>
</clipPath>
</defs>
</svg>
