<svg width="20" height="20" viewBox="0 0 20 20" fill="none" xmlns="http://www.w3.org/2000/svg">
<g clip-path="url(#clip0_170_75848)">
<path fill-rule="evenodd" clip-rule="evenodd" d="M2.79108 3.12384C3.24429 2.67063 3.85898 2.41602 4.49992 2.41602H11.1666C11.8075 2.41602 12.4222 2.67063 12.8754 3.12384C13.3286 3.57705 13.5833 4.19174 13.5833 4.83268V5.74935H14.4999C15.8346 5.74935 16.9166 6.83133 16.9166 8.16602V14.8327C16.9166 16.1674 15.8346 17.2493 14.4999 17.2493H7.83325C6.49856 17.2493 5.41659 16.1674 5.41659 14.8327V13.916H4.49992C3.85898 13.916 3.24429 13.6614 2.79108 13.2082C2.33786 12.755 2.08325 12.1403 2.08325 11.4993V4.83268C2.08325 4.19174 2.33786 3.57705 2.79108 3.12384ZM6.91659 14.8327C6.91659 15.3389 7.32699 15.7493 7.83325 15.7493H14.4999C15.0062 15.7493 15.4166 15.3389 15.4166 14.8327V8.16602C15.4166 7.65976 15.0062 7.24935 14.4999 7.24935H7.83325C7.32699 7.24935 6.91659 7.65975 6.91659 8.16602V14.8327ZM12.0833 5.74935H7.83325C6.49856 5.74935 5.41659 6.83133 5.41659 8.16602V12.416H4.49992C4.2568 12.416 4.02365 12.3194 3.85174 12.1475C3.67983 11.9756 3.58325 11.7425 3.58325 11.4993V4.83268C3.58325 4.58957 3.67983 4.35641 3.85174 4.1845C4.02365 4.01259 4.2568 3.91602 4.49992 3.91602H11.1666C11.4097 3.91602 11.6429 4.01259 11.8148 4.1845C11.9867 4.35641 12.0833 4.58957 12.0833 4.83268V5.74935Z" fill="white"/>
</g>
<defs>
<clipPath id="clip0_170_75848">
<rect width="20" height="20" fill="white"/>
</clipPath>
</defs>
</svg>
