<svg width="28" height="4" viewBox="0 0 28 4" fill="none" xmlns="http://www.w3.org/2000/svg">
<path fill-rule="evenodd" clip-rule="evenodd" d="M4 2C4 3.10457 3.10457 4 2 4C0.895431 4 0 3.10457 0 2C0 0.895431 0.895431 0 2 0C3.10457 0 4 0.895431 4 2ZM16 2C16 3.10457 15.1046 4 14 4C12.8954 4 12 3.10457 12 2C12 0.895431 12.8954 0 14 0C15.1046 0 16 0.895431 16 2ZM26 4C27.1046 4 28 3.10457 28 2C28 0.895431 27.1046 0 26 0C24.8954 0 24 0.895431 24 2C24 3.10457 24.8954 4 26 4Z" fill="url(#paint0_linear_186_79275)"/>
<defs>
<linearGradient id="paint0_linear_186_79275" x1="36" y1="2.00001" x2="-6.7471e-07" y2="2" gradientUnits="userSpaceOnUse">
<stop stop-color="#AAAAAA"/>
<stop offset="1" stop-color="#E0E0E0"/>
</linearGradient>
</defs>
</svg>
