<svg width="24" height="24" viewBox="0 0 24 24" fill="none" xmlns="http://www.w3.org/2000/svg">
<g clip-path="url(#clip0_833_49468)">
<path fill-rule="evenodd" clip-rule="evenodd" d="M11.9962 2.60352C12.4932 2.60352 12.8962 3.00646 12.8962 3.50352V13.3307L16.3598 9.86712C16.7113 9.51565 17.2811 9.51565 17.6326 9.86712C17.9841 10.2186 17.9841 10.7884 17.6326 11.1399L12.6326 16.1399C12.2811 16.4914 11.7113 16.4914 11.3598 16.1399L6.3598 11.1399C6.00832 10.7884 6.00832 10.2186 6.3598 9.86712C6.71127 9.51565 7.28112 9.51565 7.63259 9.86712L11.0962 13.3307V3.50352C11.0962 3.00646 11.4991 2.60352 11.9962 2.60352ZM3.99619 15.6035C4.49325 15.6035 4.89619 16.0065 4.89619 16.5035V18.5035C4.89619 18.7953 5.01208 19.075 5.21837 19.2813C5.42466 19.4876 5.70445 19.6035 5.99619 19.6035H17.9962C18.2879 19.6035 18.5677 19.4876 18.774 19.2813C18.9803 19.075 19.0962 18.7953 19.0962 18.5035V16.5035C19.0962 16.0065 19.4991 15.6035 19.9962 15.6035C20.4932 15.6035 20.8962 16.0065 20.8962 16.5035V18.5035C20.8962 19.2726 20.5907 20.0103 20.0468 20.5541C19.5029 21.098 18.7653 21.4035 17.9962 21.4035H5.99619C5.22706 21.4035 4.48944 21.098 3.94558 20.5541C3.40173 20.0103 3.09619 19.2726 3.09619 18.5035V16.5035C3.09619 16.0065 3.49914 15.6035 3.99619 15.6035Z" fill="white"/>
</g>
<defs>
<clipPath id="clip0_833_49468">
<rect width="24" height="24" fill="white"/>
</clipPath>
</defs>
</svg>
