<svg width="73" height="72" viewBox="0 0 73 72" fill="none" xmlns="http://www.w3.org/2000/svg">
<path d="M65.0001 28.502C65.0001 38.4435 56.9417 46.502 47.0001 46.502C46.8524 46.502 46.5262 46.5038 46.1139 46.5062C45.4566 46.5099 44.5805 46.5149 43.86 46.5156C43.3308 42.0913 41.9363 38.0085 39.506 34.8349C37.0317 31.604 33.5349 29.3882 29.002 28.7162C29.0008 28.6439 29.0001 28.5725 29.0001 28.502C29.0001 18.5604 37.0585 10.502 47.0001 10.502C56.9417 10.502 65.0001 18.5604 65.0001 28.502Z" stroke="white" stroke-width="3"/>
<path d="M44 46.502C44 56.4435 35.9416 64.502 26 64.502C16.0584 64.502 8 56.4435 8 46.502C8 36.5604 16.0584 28.502 26 28.502C26.4553 28.502 26.9484 28.5286 27.4567 28.5585C36.2196 29.2568 43.2452 36.2823 43.9435 45.0452C43.9733 45.5535 44 46.0466 44 46.502Z" stroke="white" stroke-width="3"/>
<path d="M24.0761 45.1791L24.4663 44.9671L24.6782 44.577L26.0001 42.1434L27.322 44.577L27.534 44.9671L27.9241 45.1791L30.3577 46.501L27.9241 47.8229L27.534 48.0348L27.322 48.425L26.0001 50.8585L24.6782 48.425L24.4663 48.0348L24.0761 47.8229L21.6426 46.501L24.0761 45.1791Z" fill="white" stroke="white" stroke-width="3"/>
</svg>
