<svg width="24" height="25" viewBox="0 0 24 25" fill="none" xmlns="http://www.w3.org/2000/svg">
<g clip-path="url(#clip0_1070_26830)">
<path fill-rule="evenodd" clip-rule="evenodd" d="M2.3637 2.86358C2.71517 2.51211 3.28502 2.51211 3.63649 2.86358L17.9167 17.1438C17.9693 17.1855 18.0178 17.2337 18.061 17.2881L21.6365 20.8636C21.988 21.2151 21.988 21.7849 21.6365 22.1364C21.285 22.4878 20.7152 22.4878 20.3637 22.1364L17.2226 18.9953C15.6179 19.9285 13.8734 20.4 12.0001 20.4C7.56809 20.4 3.98328 17.7843 1.21869 12.9465C1.06055 12.6698 1.06057 12.3301 1.21874 12.0533C2.41473 9.96102 3.76279 8.28152 5.27585 7.04852L2.3637 4.13637C2.01223 3.7849 2.01223 3.21505 2.3637 2.86358ZM6.55637 8.32904C5.30398 9.31462 4.12913 10.6947 3.04325 12.5001C5.55933 16.6856 8.55246 18.6 12.0001 18.6C13.3883 18.6 14.683 18.2914 15.8968 17.6694L13.314 15.0867C13.2992 15.0942 13.2843 15.1016 13.2694 15.1089C12.8768 15.3004 12.4422 15.4025 11.9971 15.4024C11.2278 15.4021 10.4902 15.0963 9.94648 14.5521C9.40274 14.008 9.09742 13.2702 9.09769 12.501C9.09786 12.0396 9.20792 11.5896 9.41339 11.1861L6.55637 8.32904ZM11.9969 6.39997C11.1899 6.39711 10.3865 6.50831 9.61063 6.73027C9.13274 6.86697 8.63451 6.59039 8.49781 6.1125C8.3611 5.63462 8.63768 5.13639 9.11557 4.99968C10.054 4.73123 11.0256 4.59667 12.0017 4.59998C16.433 4.6006 20.0172 7.21624 22.7815 12.0534C22.9397 12.3302 22.9396 12.6699 22.7814 12.9466C21.9761 14.3554 21.1033 15.5761 20.158 16.5989C19.8206 16.9639 19.2512 16.9863 18.8862 16.6489C18.5212 16.3115 18.4988 15.7421 18.8362 15.3771C19.5763 14.5764 20.2839 13.6191 20.957 12.4999C18.4409 8.31431 15.4477 6.39998 12.0001 6.39998L11.9969 6.39997Z" fill="#767676"/>
</g>
<defs>
<clipPath id="clip0_1070_26830">
<rect width="24" height="24" fill="white" transform="translate(0 0.5)"/>
</clipPath>
</defs>
</svg>
