<svg width="16" height="16" viewBox="0 0 16 16" fill="none" xmlns="http://www.w3.org/2000/svg">
<g clip-path="url(#clip0_310_17080)">
<g clip-path="url(#clip1_310_17080)">
<path d="M15.0285 8.1349C15.0285 7.54494 14.9806 7.11442 14.877 6.66797H8.14026V9.33076H12.0946C12.0149 9.9925 11.5844 10.9891 10.6277 11.6587L10.6143 11.7479L12.7443 13.398L12.8919 13.4127C14.2472 12.161 15.0285 10.3194 15.0285 8.1349Z" fill="#4285F4"/>
<path d="M8.14027 15.1507C10.0776 15.1507 11.7039 14.5129 12.8919 13.4127L10.6277 11.6587C10.0218 12.0812 9.20856 12.3762 8.14027 12.3762C6.24282 12.3762 4.63239 11.1246 4.05831 9.39453L3.97416 9.40168L1.75931 11.1158L1.73035 11.1963C2.91027 13.5402 5.33392 15.1507 8.14027 15.1507Z" fill="#34A853"/>
<path d="M4.05827 9.39369C3.9068 8.94724 3.81913 8.46885 3.81913 7.97458C3.81913 7.48025 3.9068 7.00192 4.0503 6.55546L4.04629 6.46038L1.80368 4.71875L1.73031 4.75365C1.24401 5.72631 0.964966 6.81857 0.964966 7.97458C0.964966 9.13059 1.24401 10.2228 1.73031 11.1955L4.05827 9.39369Z" fill="#FBBC05"/>
<path d="M8.14027 3.5752C9.4876 3.5752 10.3965 4.15719 10.9147 4.64355L12.9397 2.66635C11.696 1.51034 10.0776 0.800781 8.14027 0.800781C5.33392 0.800781 2.91027 2.41122 1.73035 4.75512L4.05034 6.55693C4.63239 4.8269 6.24282 3.5752 8.14027 3.5752Z" fill="#EB4335"/>
</g>
</g>
<defs>
<clipPath id="clip0_310_17080">
<rect width="16" height="16" fill="white"/>
</clipPath>
<clipPath id="clip1_310_17080">
<rect width="14.0702" height="14.4" fill="white" transform="translate(0.964905 0.800781)"/>
</clipPath>
</defs>
</svg>
