<svg width="136" height="56" viewBox="0 0 136 56" fill="none" xmlns="http://www.w3.org/2000/svg">
<rect x="1.28571" y="1.28571" width="53.4286" height="53.4286" rx="26.7143" fill="#202021"/>
<rect x="1.28571" y="1.28571" width="53.4286" height="53.4286" rx="26.7143" stroke="#2A2A2A" stroke-width="2.57143"/>
<path fill-rule="evenodd" clip-rule="evenodd" d="M37.1578 25.7579C36.8955 27.5618 35.9159 28.4346 34.6131 28.7412C36.4005 29.6913 37.3107 31.1461 36.4439 33.669C35.3696 36.8026 32.8145 37.0675 29.4178 36.4126L28.5927 39.7824L26.6004 39.2761L27.4142 35.9506C26.8974 35.8203 26.3702 35.6814 25.8266 35.5302L25.0102 38.8713L23.0204 38.365L23.8455 34.9883C23.6475 34.9366 23.4482 34.8836 23.2474 34.8302C22.9763 34.7581 22.7024 34.6853 22.4255 34.614L19.8331 33.9548L20.8232 31.6298C20.8232 31.6298 22.2909 32.0285 22.2709 31.9989C22.8355 32.1422 23.0856 31.7662 23.1837 31.516L25.4192 22.3717C25.4444 21.9409 25.2976 21.3955 24.4908 21.1905C24.5221 21.1697 23.0439 20.8249 23.0439 20.8249L23.5737 18.6536L26.3216 19.3536L26.319 19.3641C26.7333 19.4683 27.158 19.5682 27.5913 19.6698L28.4077 16.333L30.3992 16.8393L29.5984 20.1101C30.1334 20.2343 30.671 20.3602 31.1947 20.494L31.9903 17.2441L33.9817 17.7504L33.1653 21.0889C35.6796 21.9695 37.5191 23.294 37.1578 25.7579ZM29.0739 23.3496L28.2227 26.8262C28.3032 26.8466 28.3976 26.8723 28.5033 26.9011C29.6654 27.2173 32.1989 27.9066 32.6399 26.1045C33.0912 24.2588 30.6285 23.7031 29.4258 23.4318C29.2906 23.4013 29.1713 23.3743 29.0739 23.3496ZM26.8566 32.4158L27.7946 28.5814C27.9116 28.6113 28.0547 28.6441 28.2169 28.6813C29.6586 29.0117 32.6077 29.6876 32.1127 31.7149C31.6281 33.7005 28.5809 32.8791 27.1881 32.5036C27.0633 32.47 26.9518 32.4399 26.8566 32.4158Z" fill="#F9AA4B"/>
<rect x="41.2857" y="1.28571" width="53.4286" height="53.4286" rx="26.7143" fill="#202021"/>
<rect x="41.2857" y="1.28571" width="53.4286" height="53.4286" rx="26.7143" stroke="#2A2A2A" stroke-width="2.57143"/>
<path d="M67.9979 17L67.8503 17.5014V32.0482L67.9979 32.1955L74.7503 28.2041L67.9979 17Z" fill="#343434"/>
<path d="M67.998 17L61.2455 28.2041L67.998 32.1955V25.1348V17Z" fill="#8C8C8C"/>
<path d="M67.998 33.4737L67.9148 33.5751V38.7569L67.998 38.9998L74.7545 29.4844L67.998 33.4737Z" fill="#3C3C3B"/>
<path d="M67.9979 38.9998V33.4737L61.2454 29.4844L67.9979 38.9998Z" fill="#8C8C8C"/>
<path d="M67.9979 32.1954L74.7502 28.204L67.9979 25.1348V32.1954Z" fill="#141414"/>
<path d="M61.2454 28.204L67.9979 32.1954V25.1348L61.2454 28.204Z" fill="#393939"/>
<rect x="81.2857" y="1.28571" width="53.4286" height="53.4286" rx="26.7143" fill="#202021"/>
<rect x="81.2857" y="1.28571" width="53.4286" height="53.4286" rx="26.7143" stroke="#2A2A2A" stroke-width="2.57143"/>
<g clip-path="url(#clip0_720_61604)">
<path d="M101.966 31.6884C102.074 31.5805 102.222 31.5176 102.379 31.5176H116.645C116.906 31.5176 117.036 31.8322 116.852 32.0165L114.034 34.8346C113.926 34.9425 113.778 35.0054 113.62 35.0054H99.3546C99.0939 35.0054 98.9635 34.6908 99.1478 34.5065L101.966 31.6884Z" fill="url(#paint0_linear_720_61604)"/>
<path d="M101.966 21.1659C102.078 21.058 102.227 20.9951 102.38 20.9951H116.645C116.906 20.9951 117.036 21.3097 116.852 21.494L114.034 24.3121C113.926 24.42 113.778 24.4829 113.621 24.4829H99.3547C99.094 24.4829 98.9637 24.1683 99.1479 23.984L101.966 21.1659Z" fill="url(#paint1_linear_720_61604)"/>
<path d="M114.034 26.3935C113.926 26.2856 113.778 26.2227 113.62 26.2227H99.3546C99.0939 26.2227 98.9635 26.5373 99.1478 26.7216L101.966 29.5397C102.074 29.6475 102.222 29.7105 102.379 29.7105H116.645C116.906 29.7105 117.036 29.3958 116.852 29.2116L114.034 26.3935Z" fill="url(#paint2_linear_720_61604)"/>
</g>
<defs>
<linearGradient id="paint0_linear_720_61604" x1="115.282" y1="19.3123" x2="105.409" y2="38.2232" gradientUnits="userSpaceOnUse">
<stop stop-color="#00FFA3"/>
<stop offset="1" stop-color="#DC1FFF"/>
</linearGradient>
<linearGradient id="paint1_linear_720_61604" x1="110.966" y1="17.0578" x2="101.092" y2="35.9687" gradientUnits="userSpaceOnUse">
<stop stop-color="#00FFA3"/>
<stop offset="1" stop-color="#DC1FFF"/>
</linearGradient>
<linearGradient id="paint2_linear_720_61604" x1="113.11" y1="18.1779" x2="103.237" y2="37.0888" gradientUnits="userSpaceOnUse">
<stop stop-color="#00FFA3"/>
<stop offset="1" stop-color="#DC1FFF"/>
</linearGradient>
<clipPath id="clip0_720_61604">
<rect width="17.875" height="14.0096" fill="white" transform="translate(99.0625 20.9951)"/>
</clipPath>
</defs>
</svg>
