<svg width="24" height="26" viewBox="0 0 24 26" fill="none" xmlns="http://www.w3.org/2000/svg">
<path opacity="0.4" d="M20.252 11.4007C21.4828 12.1113 21.4828 13.8878 20.252 14.5984L3.64841 24.1845C2.41764 24.895 0.879173 24.0068 0.879173 22.5856L0.879174 3.41346C0.879174 1.99229 2.41764 1.10405 3.64841 1.81464L20.252 11.4007Z" fill="white"/>
<path opacity="0.4" d="M3.74824 14.5983C2.51747 13.8877 2.51747 12.1112 3.74824 11.4007L20.3518 1.81457C21.5826 1.10398 23.1211 1.99221 23.1211 3.41338L23.1211 22.5856C23.1211 24.0067 21.5826 24.895 20.3518 24.1844L3.74824 14.5983Z" fill="white"/>
<path fill-rule="evenodd" clip-rule="evenodd" d="M3.74803 11.4008C2.51726 12.1114 2.51726 13.8878 3.74803 14.5984L12.0001 19.3628L20.2518 14.5987C21.4825 13.8881 21.4825 12.1117 20.2518 11.4011L11.9997 6.63672L3.74803 11.4008Z" fill="white"/>
</svg>
