<svg width="20" height="20" viewBox="0 0 20 20" fill="none" xmlns="http://www.w3.org/2000/svg">
<g clip-path="url(#clip0_793_1058)">
<path fill-rule="evenodd" clip-rule="evenodd" d="M8.76429 2.05839C9.13616 1.83914 9.55997 1.72351 9.99166 1.72351C10.4234 1.72351 10.8472 1.83914 11.219 2.05839C11.5886 2.27625 11.8934 2.58851 12.1023 2.96306L18.0156 13.1655C18.0332 13.196 18.0487 13.2277 18.0619 13.2604C18.2098 13.6259 18.266 14.022 18.2256 14.4143C18.1852 14.8065 18.0494 15.1829 17.8302 15.5106C17.6109 15.8383 17.3148 16.1074 16.9676 16.2943C16.6205 16.4813 16.2329 16.5805 15.8386 16.5833L15.8333 16.5833L4.16666 16.5833C4.15139 16.5833 4.13623 16.5828 4.12119 16.5819C4.09327 16.5836 4.06497 16.5838 4.03638 16.5823C3.6514 16.5625 3.27675 16.4508 2.94372 16.2567C2.61068 16.0625 2.32892 15.7915 2.12196 15.4663C1.915 15.1411 1.78884 14.7711 1.75402 14.3871C1.7192 14.0032 1.77673 13.6165 1.9218 13.2594C1.93492 13.2271 1.95029 13.1957 1.96777 13.1655L7.88104 2.96309C8.08993 2.58853 8.39477 2.27625 8.76429 2.05839ZM4.12064 15.0847C4.13586 15.0838 4.15121 15.0833 4.16666 15.0833H15.8303C15.9791 15.0819 16.1253 15.0443 16.2563 14.9737C16.388 14.9028 16.5003 14.8007 16.5835 14.6764C16.6667 14.5521 16.7182 14.4094 16.7335 14.2606C16.7473 14.1268 16.7314 13.9918 16.6873 13.8651L10.8011 3.7094L10.7937 3.6964C10.7145 3.55312 10.5983 3.4337 10.4572 3.35053C10.3162 3.26737 10.1554 3.22351 9.99166 3.22351C9.82792 3.22351 9.66716 3.26737 9.52611 3.35053C9.38505 3.4337 9.26885 3.55312 9.18958 3.6964L9.18222 3.7094L3.29574 13.8656C3.25242 13.9892 3.23603 14.1209 3.24789 14.2517C3.2611 14.3973 3.30895 14.5376 3.38745 14.661C3.46595 14.7843 3.57283 14.8871 3.69915 14.9608C3.82547 15.0344 3.96758 15.0768 4.11361 15.0843C4.11596 15.0844 4.1183 15.0846 4.12064 15.0847ZM10 5.74997C10.4142 5.74997 10.75 6.08576 10.75 6.49997V9.49997C10.75 9.91419 10.4142 10.25 10 10.25C9.58578 10.25 9.25 9.91419 9.25 9.49997V6.49997C9.25 6.08576 9.58578 5.74997 10 5.74997ZM10 11.75C10.4142 11.75 10.75 12.0858 10.75 12.5V12.5083C10.75 12.9225 10.4142 13.2583 10 13.2583C9.58578 13.2583 9.25 12.9225 9.25 12.5083V12.5C9.25 12.0858 9.58578 11.75 10 11.75Z" fill="#EF4444"/>
</g>
<defs>
<clipPath id="clip0_793_1058">
<rect width="20" height="20" fill="white"/>
</clipPath>
</defs>
</svg>
