<svg width="16" height="16" viewBox="0 0 16 16" fill="none" xmlns="http://www.w3.org/2000/svg">
<g clip-path="url(#clip0_170_74059)">
<path fill-rule="evenodd" clip-rule="evenodd" d="M6.86664 2.4002C4.62068 2.4002 2.79998 4.2209 2.79998 6.46686C2.79998 8.71282 4.62068 10.5335 6.86664 10.5335C9.1126 10.5335 10.9333 8.71282 10.9333 6.46686C10.9333 4.2209 9.1126 2.4002 6.86664 2.4002ZM1.59998 6.46686C1.59998 3.55816 3.95794 1.2002 6.86664 1.2002C9.77534 1.2002 12.1333 3.55816 12.1333 6.46686C12.1333 7.70503 11.706 8.84341 10.9909 9.74259L14.6242 13.3759C14.8586 13.6102 14.8586 13.9901 14.6242 14.2245C14.3899 14.4588 14.01 14.4588 13.7757 14.2245L10.1424 10.5911C9.24319 11.3063 8.10481 11.7335 6.86664 11.7335C3.95794 11.7335 1.59998 9.37556 1.59998 6.46686Z" fill="#767676"/>
</g>
<defs>
<clipPath id="clip0_170_74059">
<rect width="16" height="16" fill="white"/>
</clipPath>
</defs>
</svg>
