<svg width="18" height="18" viewBox="0 0 18 18" fill="none" xmlns="http://www.w3.org/2000/svg">
<path d="M9.00005 11.3998C7.67457 11.3998 6.60005 10.3253 6.60005 8.9998C6.60005 7.67432 7.67457 6.5998 9.00005 6.5998C10.3255 6.5998 11.4 7.67432 11.4 8.9998C11.4 10.3253 10.3255 11.3998 9.00005 11.3998ZM9.00005 10.1998C9.66279 10.1998 10.2 9.66255 10.2 8.9998C10.2 8.33706 9.66279 7.79981 9.00005 7.79981C8.33731 7.79981 7.80005 8.33706 7.80005 8.9998C7.80005 9.66255 8.33731 10.1998 9.00005 10.1998ZM14.346 9.59981H14.4C14.7314 9.59981 15 9.33118 15 8.9998C15 8.66843 14.7314 8.3998 14.4 8.3998L14.2957 8.3998C13.6619 8.39727 13.0902 8.01865 12.8406 7.43616C12.8188 7.38546 12.8043 7.33213 12.7971 7.27768C12.5983 6.71064 12.7363 6.07458 13.1658 5.63554L13.202 5.5993C13.3147 5.48676 13.378 5.33405 13.378 5.1748C13.378 5.01556 13.3147 4.86285 13.2015 4.74983C13.089 4.63717 12.9363 4.57386 12.777 4.57386C12.6178 4.57386 12.4651 4.63717 12.3523 4.75007L12.3116 4.79072C11.847 5.24524 11.1524 5.37117 10.5637 5.11129C9.9812 4.86164 9.60258 4.28993 9.60005 3.6538V3.5998C9.60005 3.26843 9.33142 2.9998 9.00005 2.9998C8.66868 2.9998 8.40005 3.26843 8.40005 3.5998L8.40004 3.7042C8.39752 4.33793 8.0189 4.90964 7.43641 5.15929C7.38571 5.18102 7.33237 5.1956 7.27792 5.20273C6.71088 5.40151 6.07483 5.26358 5.63579 4.83407L5.59955 4.79783C5.48701 4.68517 5.33429 4.62186 5.17505 4.62186C5.0158 4.62186 4.86309 4.68517 4.75008 4.7983C4.63741 4.91085 4.57411 5.06356 4.57411 5.2228C4.57411 5.38205 4.63741 5.53476 4.75031 5.64754L4.79097 5.68825C5.24548 6.1529 5.37141 6.84741 5.12317 7.40691C4.89781 8.01966 4.32078 8.43237 3.65405 8.4478H3.60005C3.26868 8.4478 3.00005 8.71643 3.00005 9.0478C3.00005 9.37918 3.26868 9.64781 3.60005 9.64781L3.70444 9.64781C4.33817 9.65034 4.90989 10.029 5.15697 10.6055C5.41941 11.2002 5.29348 11.8947 4.83431 12.3641L4.79808 12.4003C4.68541 12.5128 4.6221 12.6656 4.6221 12.8248C4.6221 12.9841 4.68541 13.1368 4.79855 13.2498C4.91109 13.3624 5.0638 13.4257 5.22305 13.4257C5.38229 13.4257 5.53501 13.3624 5.64779 13.2495L5.68849 13.2089C6.15314 12.7544 6.84766 12.6284 7.40716 12.8767C8.01991 13.102 8.43262 13.6791 8.44805 14.3458V14.3998C8.44805 14.7312 8.71668 14.9998 9.04805 14.9998C9.37942 14.9998 9.64805 14.7312 9.64805 14.3998L9.64805 14.2954C9.65058 13.6617 10.0292 13.09 10.6058 12.8429C11.2004 12.5804 11.895 12.7064 12.3643 13.1655L12.4005 13.2018C12.5131 13.3144 12.6658 13.3777 12.825 13.3777C12.9843 13.3777 13.137 13.3144 13.25 13.2013C13.3627 13.0888 13.426 12.9361 13.426 12.7768C13.426 12.6176 13.3627 12.4648 13.2498 12.3521L13.2091 12.3114C12.7554 11.8475 12.6291 11.1545 12.8898 10.5605C13.1401 9.97968 13.711 9.60233 14.346 9.59981ZM14.298 7.1998H14.4C15.3942 7.1998 16.2 8.00569 16.2 8.9998C16.2 9.99392 15.3942 10.7998 14.4 10.7998L14.3484 10.7998C14.193 10.8004 14.0528 10.8933 13.9915 11.0362L13.989 11.0421C13.9246 11.1879 13.9555 11.3583 14.0623 11.4675L14.0981 11.5033C14.4361 11.8409 14.626 12.2991 14.626 12.7768C14.626 13.2545 14.4361 13.7127 14.0985 14.0498C13.7609 14.3878 13.3028 14.5777 12.825 14.5777C12.3473 14.5777 11.8892 14.3878 11.5518 14.0501L11.5205 14.0187C11.4065 13.9072 11.2362 13.8763 11.0844 13.9433C10.9415 14.0045 10.8487 14.1448 10.848 14.2978V14.3998C10.848 15.3939 10.0422 16.1998 9.04805 16.1998C8.05394 16.1998 7.24805 15.3939 7.24805 14.3998L7.24821 14.3598C7.24447 14.1997 7.14324 14.0582 6.95779 13.9887C6.81193 13.9243 6.64158 13.9552 6.53231 14.0621L6.49655 14.0978C6.15893 14.4358 5.70079 14.6257 5.22305 14.6257C4.74531 14.6257 4.28717 14.4358 3.95002 14.0983C3.61202 13.7607 3.4221 13.3025 3.4221 12.8248C3.4221 12.3471 3.61202 11.8889 3.94978 11.5515L3.98113 11.5202C4.09262 11.4063 4.1235 11.2359 4.05657 11.0842C3.99533 10.9413 3.8551 10.8484 3.70205 10.8478H3.60005C2.60594 10.8478 1.80005 10.0419 1.80005 9.0478C1.80005 8.05369 2.60594 7.2478 3.60005 7.2478L3.64002 7.24797C3.80011 7.24422 3.94165 7.14299 4.01113 6.95755C4.0755 6.81169 4.04462 6.64134 3.93778 6.53207L3.90202 6.4963C3.56402 6.15868 3.3741 5.70054 3.3741 5.2228C3.3741 4.74507 3.56402 4.28693 3.90155 3.94978C4.23917 3.61178 4.69731 3.42186 5.17505 3.42186C5.65279 3.42186 6.11093 3.61178 6.44831 3.94954L6.47961 3.98089C6.59358 4.09237 6.76393 4.12326 6.90979 4.05889C6.94823 4.04192 6.98825 4.02909 7.02915 4.02053C7.13429 3.94921 7.19953 3.83 7.20005 3.7018V3.5998C7.20005 2.60569 8.00594 1.7998 9.00005 1.7998C9.99416 1.7998 10.8 2.60569 10.8 3.5998L10.8 3.65141C10.8007 3.80685 10.8935 3.94709 11.0423 4.01089C11.1882 4.07526 11.3585 4.04437 11.4678 3.93754L11.5035 3.90178C11.8412 3.56378 12.2993 3.37386 12.777 3.37386C13.2548 3.37386 13.7129 3.56378 14.0501 3.9013C14.3881 4.23893 14.578 4.69707 14.578 5.1748C14.578 5.65254 14.3881 6.11068 14.0503 6.44807L14.019 6.47936C13.9075 6.59334 13.8766 6.76369 13.941 6.90955C13.9579 6.94799 13.9708 6.988 13.9793 7.02891C14.0506 7.13405 14.1699 7.19929 14.298 7.1998Z" fill="white"/>
</svg>
