<svg width="18" height="18" viewBox="0 0 18 18" fill="none" xmlns="http://www.w3.org/2000/svg">
<path d="M4.07649 9.09991L4.30577 8.89732L4.56203 7.67006L3.50339 7.60463L3.06673 7.99047L3.036 8.01919L1.96099 9.61342L1.58321 11.4987L1.96099 13.3841L3.036 14.9783L3.44444 13.0223C3.4089 12.9515 3.37578 12.8794 3.34519 12.8062C3.17226 12.392 3.08321 11.9476 3.08321 11.4987C3.08321 11.0499 3.17226 10.6055 3.34519 10.1913C3.51555 9.78331 3.764 9.41256 4.07649 9.09991Z" fill="white"/>
<path d="M2.03033 0.96967C1.73744 0.676777 1.26256 0.676777 0.96967 0.96967C0.676777 1.26256 0.676777 1.73744 0.96967 2.03033L7.93934 9L5.96967 10.9697C5.67678 11.2626 5.67678 11.7374 5.96967 12.0303C6.26256 12.3232 6.73744 12.3232 7.03033 12.0303L9 10.0607L15.9697 17.0303C16.2626 17.3232 16.7374 17.3232 17.0303 17.0303C17.3232 16.7374 17.3232 16.2626 17.0303 15.9697L9.5309 8.47024L9.52976 8.4691L2.03033 0.96967Z" fill="white"/>
<path d="M8.73424 4.49027L9.10128 4.06536C9.7403 3.43608 10.6015 3.08301 11.499 3.08308C12.4052 3.08314 13.2743 3.4432 13.915 4.08404C14.5558 4.72488 14.9157 5.59402 14.9157 6.50024C14.9156 7.39815 14.5621 8.25959 13.9323 8.8986L13.5081 9.2672C13.1954 9.53888 13.1622 10.0126 13.4339 10.3253C13.7055 10.6379 14.1793 10.6712 14.4919 10.3995L14.9369 10.0128C14.9501 10.0013 14.9629 9.9894 14.9753 9.97703C15.8975 9.055 16.4156 7.8044 16.4157 6.50035C16.4158 5.1963 15.8978 3.94562 14.9758 3.02346C14.0537 2.10129 12.8031 1.58317 11.4991 1.58308C10.195 1.58299 8.94437 2.10093 8.02221 3.02297C8.0093 3.03587 7.99686 3.04925 7.98493 3.06306L7.5991 3.50973C7.32833 3.82319 7.36294 4.2968 7.6764 4.56757C7.98986 4.83834 8.46347 4.80373 8.73424 4.49027Z" fill="white"/>
<path d="M12.0303 7.03033C12.3232 6.73744 12.3232 6.26256 12.0303 5.96967C11.7374 5.67678 11.2626 5.67678 10.9697 5.96967L10.1363 6.803C9.84344 7.0959 9.84344 7.57077 10.1363 7.86366C10.4292 8.15656 10.9041 8.15656 11.197 7.86366L12.0303 7.03033Z" fill="white"/>
<path d="M6.53292 14.9153C5.61847 14.9153 4.74089 14.5547 4.09066 13.9117C3.82797 13.6519 3.60983 13.3514 3.44444 13.0223L3.036 14.9783C3.96703 15.899 5.22356 16.4153 6.53292 16.4153C7.84228 16.4153 9.09882 15.899 10.0299 14.9783C10.0568 14.9516 10.0817 14.9229 10.1044 14.8925L10.4352 14.4475C10.6824 14.1151 10.6132 13.6452 10.2808 13.3981C9.94839 13.151 9.47858 13.2201 9.23144 13.5525L8.93629 13.9495C8.29018 14.5688 7.42927 14.9153 6.53292 14.9153Z" fill="white"/>
<path d="M4.49661 8.7287C4.80701 8.45443 4.8363 7.98046 4.56203 7.67006L4.30577 8.89732L4.49661 8.7287Z" fill="white"/>
<path d="M4.56203 7.67006C4.28777 7.35966 3.8138 7.33036 3.50339 7.60463L4.56203 7.67006Z" fill="white"/>
<path d="M3.036 8.01919C2.57576 8.47427 2.21037 9.01614 1.96099 9.61342L3.036 8.01919Z" fill="white"/>
<path d="M1.96099 9.61342C1.71162 10.2107 1.58321 10.8515 1.58321 11.4987L1.96099 9.61342Z" fill="white"/>
<path d="M1.58321 11.4987C1.58321 12.146 1.71162 12.7868 1.96099 13.3841L1.58321 11.4987Z" fill="white"/>
<path d="M1.96099 13.3841C2.21036 13.9813 2.57577 14.5232 3.036 14.9783L1.96099 13.3841Z" fill="white"/>
</svg>
