<svg width="24" height="24" viewBox="0 0 24 24" fill="none" xmlns="http://www.w3.org/2000/svg">
<g clip-path="url(#clip0_wallet)">
<path fill-rule="evenodd" clip-rule="evenodd" d="M19 4H5C3.34315 4 2 5.34315 2 7V17C2 18.6569 3.34315 20 5 20H19C20.6569 20 22 18.6569 22 17V7C22 5.34315 20.6569 4 19 4ZM5 6C4.44772 6 4 6.44772 4 7V17C4 17.5523 4.44772 18 5 18H19C19.5523 18 20 17.5523 20 17V7C20 6.44772 19.5523 6 19 6H5Z" fill="white"/>
<path fill-rule="evenodd" clip-rule="evenodd" d="M22 10H18C16.8954 10 16 10.8954 16 12C16 13.1046 16.8954 14 18 14H22V10ZM18 12H20V12.5V13.5H18C17.7239 13.5 17.5 13.2761 17.5 13V11C17.5 10.7239 17.7239 10.5 18 10.5H20V12Z" fill="white"/>
<path fill-rule="evenodd" clip-rule="evenodd" d="M5 2C4.44772 2 4 2.44772 4 3V6C4 6.55228 4.44772 7 5 7C5.55228 7 6 6.55228 6 6V4H18V6C18 6.55228 18.4477 7 19 7C19.5523 7 20 6.55228 20 6V3C20 2.44772 19.5523 2 19 2H5Z" fill="white"/>
</g>
<defs>
<clipPath id="clip0_wallet">
<rect width="24" height="24" fill="white"/>
</clipPath>
</defs>
</svg>
