<svg width="16" height="16" viewBox="0 0 16 16" fill="none" xmlns="http://www.w3.org/2000/svg">
<g clip-path="url(#clip0_154_65203)">
<path fill-rule="evenodd" clip-rule="evenodd" d="M9.58104 4.90425C9.34673 5.13857 9.34673 5.51847 9.58104 5.75278L11.2234 7.39518H3.33862C3.00725 7.39518 2.73862 7.66381 2.73862 7.99518C2.73862 8.32655 3.00725 8.59518 3.33862 8.59518H11.2234L9.58104 10.2376C9.34673 10.4719 9.34673 10.8518 9.58104 11.0861C9.81536 11.3204 10.1953 11.3204 10.4296 11.0861L13.0962 8.41945C13.2088 8.30692 13.272 8.15431 13.272 7.99518C13.272 7.83605 13.2088 7.68344 13.0962 7.57092L10.4296 4.90425C10.1953 4.66994 9.81536 4.66994 9.58104 4.90425Z" fill="white"/>
</g>
<defs>
<clipPath id="clip0_154_65203">
<rect width="16" height="16" fill="white"/>
</clipPath>
</defs>
</svg>
