<svg width="8" height="12" viewBox="0 0 8 12" fill="none" xmlns="http://www.w3.org/2000/svg">
<path fill-rule="evenodd" clip-rule="evenodd" d="M4.00531 11.2637C3.84618 11.2637 3.69356 11.2005 3.58104 11.0879L0.914375 8.42127C0.680061 8.18695 0.680061 7.80705 0.914375 7.57274C1.14869 7.33843 1.52859 7.33843 1.7629 7.57274L3.40531 9.21514L3.40531 1.33034C3.40531 0.998967 3.67394 0.730338 4.00531 0.730338C4.33668 0.730338 4.60531 0.998967 4.60531 1.33034L4.60531 9.21514L6.24771 7.57274C6.48202 7.33843 6.86192 7.33843 7.09624 7.57274C7.33055 7.80706 7.33055 8.18695 7.09624 8.42127L4.42957 11.0879C4.31705 11.2005 4.16444 11.2637 4.00531 11.2637Z" fill="#2D68FF"/>
</svg>
