<svg width="118" height="119" viewBox="0 0 118 119" fill="none" xmlns="http://www.w3.org/2000/svg">
<rect y="0.5" width="118" height="118" rx="16.8571" fill="#1B1B1B"/>
<path fill-rule="evenodd" clip-rule="evenodd" d="M50.5717 42.4315C49.9569 42.4315 49.3674 42.6757 48.9327 43.1104C48.498 43.5451 48.2538 44.1347 48.2538 44.7494V74.2494C48.2538 74.8641 48.498 75.4537 48.9327 75.8884C49.3674 76.323 49.9569 76.5672 50.5717 76.5672H67.4288C68.0435 76.5672 68.6331 76.323 69.0678 75.8884C69.5025 75.4537 69.7467 74.8641 69.7467 74.2494V44.7494C69.7467 44.1347 69.5025 43.5451 69.0678 43.1104C68.6331 42.6757 68.0435 42.4315 67.4288 42.4315H62.9922C62.9999 42.5007 63.0038 42.571 63.0038 42.6422C63.0038 43.6896 62.1547 44.5387 61.1074 44.5387H56.8931C55.8457 44.5387 54.9967 43.6896 54.9967 42.6422C54.9967 42.571 55.0006 42.5007 55.0082 42.4315H50.5717ZM46.2507 40.4285C47.3967 39.2825 48.951 38.6387 50.5717 38.6387H67.4288C69.0495 38.6387 70.6037 39.2825 71.7497 40.4285C72.8957 41.5744 73.5395 43.1287 73.5395 44.7494V74.2494C73.5395 75.8701 72.8957 77.4243 71.7497 78.5703C70.6037 79.7163 69.0495 80.3601 67.4288 80.3601H50.5717C48.951 80.3601 47.3967 79.7163 46.2507 78.5703C45.1047 77.4243 44.4609 75.87 44.4609 74.2494V44.7494C44.4609 43.1287 45.1047 41.5744 46.2507 40.4285ZM59.0002 68.1387C60.0476 68.1387 60.8967 68.9877 60.8967 70.0351V70.0562C60.8967 71.1035 60.0476 71.9526 59.0002 71.9526C57.9529 71.9526 57.1038 71.1035 57.1038 70.0562V70.0351C57.1038 68.9877 57.9529 68.1387 59.0002 68.1387Z" fill="white"/>
</svg>
