<svg width="20" height="20" viewBox="0 0 20 20" fill="none" xmlns="http://www.w3.org/2000/svg">
<g clip-path="url(#clip0_393_4680)">
<path fill-rule="evenodd" clip-rule="evenodd" d="M2.79132 3.12445C3.24453 2.67124 3.85922 2.41663 4.50016 2.41663H11.1668C11.8078 2.41663 12.4225 2.67124 12.8757 3.12445C13.3289 3.57766 13.5835 4.19235 13.5835 4.83329V5.74996H14.5002C15.8349 5.74996 16.9168 6.83194 16.9168 8.16663V14.8333C16.9168 16.168 15.8349 17.25 14.5002 17.25H7.8335C6.49881 17.25 5.41683 16.168 5.41683 14.8333V13.9166H4.50016C3.85922 13.9166 3.24453 13.662 2.79132 13.2088C2.33811 12.7556 2.0835 12.1409 2.0835 11.5V4.83329C2.0835 4.19235 2.33811 3.57766 2.79132 3.12445ZM6.91683 14.8333C6.91683 15.3396 7.32724 15.75 7.8335 15.75H14.5002C15.0064 15.75 15.4168 15.3396 15.4168 14.8333V8.16663C15.4168 7.66037 15.0064 7.24996 14.5002 7.24996H7.8335C7.32724 7.24996 6.91683 7.66037 6.91683 8.16663V14.8333ZM12.0835 5.74996H7.8335C6.49881 5.74996 5.41683 6.83194 5.41683 8.16663V12.4166H4.50016C4.25705 12.4166 4.02389 12.32 3.85198 12.1481C3.68007 11.9762 3.5835 11.7431 3.5835 11.5V4.83329C3.5835 4.59018 3.68007 4.35702 3.85198 4.18511C4.02389 4.0132 4.25705 3.91663 4.50016 3.91663H11.1668C11.4099 3.91663 11.6431 4.0132 11.815 4.18511C11.9869 4.35702 12.0835 4.59018 12.0835 4.83329V5.74996Z" fill="#FFFFFF"/>
</g>
<defs>
<clipPath id="clip0_393_4680">
<rect width="20" height="20" fill="white"/>
</clipPath>
</defs>
</svg>
