<svg width="25" height="24" viewBox="0 0 25 24" fill="none" xmlns="http://www.w3.org/2000/svg">
<g clip-path="url(#clip0_833_49475)">
<path fill-rule="evenodd" clip-rule="evenodd" d="M10.5001 3.89961C10.4736 3.89961 10.4481 3.91015 10.4294 3.9289C10.4106 3.94765 10.4001 3.97309 10.4001 3.99961V6.09961H14.6001V3.99961C14.6001 3.97309 14.5896 3.94765 14.5708 3.9289C14.5521 3.91014 14.5266 3.89961 14.5001 3.89961H10.5001ZM16.4001 6.09961V3.99961C16.4001 3.4957 16.1999 3.01243 15.8436 2.65611C15.4873 2.29979 15.004 2.09961 14.5001 2.09961H10.5001C9.99619 2.09961 9.51291 2.29979 9.15659 2.65611C8.80028 3.01243 8.6001 3.4957 8.6001 3.99961V6.09961H5.51062C5.50429 6.09954 5.49794 6.09954 5.49158 6.09961H4.5001C4.00304 6.09961 3.6001 6.50255 3.6001 6.99961C3.6001 7.49667 4.00304 7.89961 4.5001 7.89961H4.67198L5.60039 19.0405C5.61101 19.7948 5.91528 20.516 6.44949 21.0502C6.99334 21.5941 7.73097 21.8996 8.5001 21.8996H16.5001C17.2692 21.8996 18.0069 21.5941 18.5507 21.0502C19.0849 20.516 19.3892 19.7948 19.3998 19.0405L20.3282 7.89961H20.5001C20.9972 7.89961 21.4001 7.49667 21.4001 6.99961C21.4001 6.50255 20.9972 6.09961 20.5001 6.09961H19.5086C19.5023 6.09954 19.4959 6.09954 19.4896 6.09961H16.4001ZM6.47822 7.89961L7.39699 18.9249C7.39906 18.9497 7.4001 18.9747 7.4001 18.9996C7.4001 19.2913 7.51599 19.5711 7.72228 19.7774C7.92857 19.9837 8.20836 20.0996 8.5001 20.0996H16.5001C16.7918 20.0996 17.0716 19.9837 17.2779 19.7774C17.4842 19.5711 17.6001 19.2913 17.6001 18.9996C17.6001 18.9747 17.6011 18.9497 17.6032 18.9249L18.522 7.89961H6.47822ZM10.5001 10.0996C10.9972 10.0996 11.4001 10.5026 11.4001 10.9996V16.9996C11.4001 17.4967 10.9972 17.8996 10.5001 17.8996C10.003 17.8996 9.6001 17.4967 9.6001 16.9996V10.9996C9.6001 10.5026 10.003 10.0996 10.5001 10.0996ZM14.5001 10.0996C14.9972 10.0996 15.4001 10.5026 15.4001 10.9996V16.9996C15.4001 17.4967 14.9972 17.8996 14.5001 17.8996C14.003 17.8996 13.6001 17.4967 13.6001 16.9996V10.9996C13.6001 10.5026 14.003 10.0996 14.5001 10.0996Z" fill="white"/>
</g>
<defs>
<clipPath id="clip0_833_49475">
<rect width="24" height="24" fill="white" transform="translate(0.5)"/>
</clipPath>
</defs>
</svg>
