<svg width="20" height="20" viewBox="0 0 20 20" fill="none" xmlns="http://www.w3.org/2000/svg">
<g clip-path="url(#clip0_1118_24995)">
<path d="M8.33334 10C8.33334 10.4421 8.50894 10.866 8.8215 11.1786C9.13406 11.4911 9.55798 11.6667 10 11.6667C10.442 11.6667 10.866 11.4911 11.1785 11.1786C11.4911 10.866 11.6667 10.4421 11.6667 10C11.6667 9.55801 11.4911 9.13409 11.1785 8.82153C10.866 8.50897 10.442 8.33337 10 8.33337C9.55798 8.33337 9.13406 8.50897 8.8215 8.82153C8.50894 9.13409 8.33334 9.55801 8.33334 10Z" stroke="#FFFFFF" stroke-width="1.25" stroke-linecap="round" stroke-linejoin="round"/>
<path d="M17.5 10C15.5 13.3333 13 15 10 15C7 15 4.5 13.3333 2.5 10C4.5 6.66667 7 5 10 5C13 5 15.5 6.66667 17.5 10Z" stroke="#FFFFFF" stroke-width="1.25" stroke-linecap="round" stroke-linejoin="round"/>
</g>
<defs>
<clipPath id="clip0_1118_24995">
<rect width="20" height="20" fill="white"/>
</clipPath>
</defs>
</svg>
