<svg width="16" height="16" viewBox="0 0 16 16" fill="none" xmlns="http://www.w3.org/2000/svg">
<path d="M11.3332 5.33366V3.33366C11.3332 3.15685 11.2629 2.98728 11.1379 2.86225C11.0129 2.73723 10.8433 2.66699 10.6665 2.66699H3.99984C3.64622 2.66699 3.30708 2.80747 3.05703 3.05752C2.80698 3.30756 2.6665 3.6467 2.6665 4.00033M2.6665 4.00033C2.6665 4.35395 2.80698 4.69309 3.05703 4.94313C3.30708 5.19318 3.64622 5.33366 3.99984 5.33366H11.9998C12.1766 5.33366 12.3462 5.4039 12.4712 5.52892C12.5963 5.65395 12.6665 5.82351 12.6665 6.00033V7.71149M2.6665 4.00033V11.3488C2.6665 11.7024 2.80698 12.0415 3.05703 12.2916C3.30708 12.5416 3.64622 12.6821 3.99984 12.6821H6.49982" stroke="white" stroke-width="1.5" stroke-linecap="round" stroke-linejoin="round"/>
<path d="M11.7505 14.584L9.58252 12.584L11.7505 10.584" stroke="white" stroke-width="1.5" stroke-linecap="round" stroke-linejoin="round"/>
<path d="M10.7505 12.584L14.7505 12.584" stroke="white" stroke-width="1.5" stroke-linecap="round" stroke-linejoin="round"/>
</svg>
