<svg width="24" height="24" viewBox="0 0 24 24" fill="none" xmlns="http://www.w3.org/2000/svg">
<g clip-path="url(#clip0_170_76958)">
<path fill-rule="evenodd" clip-rule="evenodd" d="M19.6365 3.36321C19.988 3.71469 19.988 4.28453 19.6365 4.63601L19.2729 4.99961L20.6365 6.36321C20.988 6.71468 20.988 7.28453 20.6365 7.636C20.285 7.98748 19.7152 7.98748 19.3637 7.63601L18.0001 6.2724L16.2729 7.99961L17.6365 9.36321C17.988 9.71468 17.988 10.2845 17.6365 10.636C17.285 10.9875 16.7152 10.9875 16.3637 10.636L15.0001 9.2724L12.0427 12.2298C12.5836 13.0177 12.9001 13.9717 12.9001 14.9996C12.9001 17.7058 10.7063 19.8996 8.0001 19.8996C5.2939 19.8996 3.1001 17.7058 3.1001 14.9996C3.1001 12.2934 5.2939 10.0996 8.0001 10.0996C9.02801 10.0996 9.98199 10.4161 10.7699 10.957L17.3633 4.36364C17.3631 4.36378 17.3634 4.3635 17.3633 4.36364C17.3634 4.3635 17.364 4.36293 17.3641 4.36279L18.3637 3.36321C18.7152 3.01174 19.285 3.01174 19.6365 3.36321ZM8.0001 11.8996C6.28801 11.8996 4.9001 13.2875 4.9001 14.9996C4.9001 16.7117 6.28801 18.0996 8.0001 18.0996C9.71218 18.0996 11.1001 16.7117 11.1001 14.9996C11.1001 13.2875 9.71218 11.8996 8.0001 11.8996Z" fill="white"/>
</g>
<defs>
<clipPath id="clip0_170_76958">
<rect width="24" height="24" fill="white"/>
</clipPath>
</defs>
</svg>
