<svg width="23" height="30" viewBox="0 0 23 30" fill="none" xmlns="http://www.w3.org/2000/svg">
<path opacity="0.8" d="M12.2034 13.1457C11.6207 12.8165 10.9081 12.8165 10.3254 13.1457L3.10152 17.2262C1.80791 17.9569 1.80791 19.8201 3.10151 20.5508L10.3254 24.6313C10.9081 24.9604 11.6207 24.9604 12.2034 24.6313L19.4273 20.5508C20.7209 19.8201 20.7209 17.9569 19.4273 17.2262L12.2034 13.1457Z" fill="#4F4D55"/>
<path opacity="0.8" d="M12.2034 9.51972C11.6207 9.19057 10.9081 9.19057 10.3254 9.51972L3.10152 13.6002C1.80791 14.3309 1.80791 16.1941 3.10151 16.9248L10.3254 21.0053C10.9081 21.3345 11.6207 21.3345 12.2034 21.0053L19.4273 16.9248C20.7209 16.1941 20.7209 14.3309 19.4273 13.6002L12.2034 9.51972Z" fill="#C9C9CC"/>
<path d="M12.2036 5.89716C11.6209 5.56801 10.9084 5.56801 10.3257 5.89716L3.10176 9.97765C1.80815 10.7084 1.80815 12.5716 3.10176 13.3023L10.3257 17.3828C10.9084 17.7119 11.6209 17.7119 12.2036 17.3828L19.4275 13.3023C20.7211 12.5716 20.7211 10.7084 19.4275 9.97765L12.2036 5.89716Z" fill="white"/>
</svg>
