<svg width="24" height="24" viewBox="0 0 24 24" fill="none" xmlns="http://www.w3.org/2000/svg">
<path d="M21.25 9.50061C21.25 12.6764 18.6758 15.2506 15.5 15.2506C15.46 15.2506 15.3646 15.2512 15.2412 15.2519C15.0996 15.2527 14.9211 15.2537 14.7472 15.2544C14.7223 15.2545 14.6975 15.2545 14.6729 15.2546C14.4736 13.8316 14.0033 12.508 13.2004 11.4596C12.3759 10.3828 11.2241 9.6299 9.75168 9.36023C9.82621 6.24931 12.3711 3.75061 15.5 3.75061C18.6758 3.75061 21.25 6.32482 21.25 9.50061Z" stroke="#767676" stroke-width="1.5"/>
<path d="M14.25 15.5006C14.25 18.6764 11.6758 21.2506 8.5 21.2506C5.32421 21.2506 2.75 18.6764 2.75 15.5006C2.75 12.3248 5.32421 9.75061 8.5 9.75061C8.64277 9.75061 8.79936 9.75895 8.96828 9.76887C11.7648 9.99298 14.0076 12.2358 14.2317 15.0323C14.2417 15.2012 14.25 15.3578 14.25 15.5006Z" stroke="#767676" stroke-width="1.5"/>
<path d="M7.978 15.2793L8.17308 15.1733L8.27904 14.9782L8.5 14.5715L8.72096 14.9782L8.82693 15.1733L9.022 15.2793L9.42876 15.5002L9.022 15.7212L8.82693 15.8272L8.72096 16.0222L8.5 16.429L8.27904 16.0222L8.17308 15.8272L7.978 15.7212L7.57124 15.5002L7.978 15.2793Z" fill="#767676" stroke="#767676" stroke-width="1.5"/>
</svg>
