<svg width="24" height="24" viewBox="0 0 24 24" fill="none" xmlns="http://www.w3.org/2000/svg">
<g clip-path="url(#clip0_170_76953)">
<path fill-rule="evenodd" clip-rule="evenodd" d="M6.0001 0C5.23097 0 4.49334 0.305535 3.94949 0.84939C3.40563 1.39325 3.1001 2.13087 3.1001 2.9V14.9C3.1001 15.6691 3.40563 16.4068 3.94949 16.9506C4.49334 17.4945 5.23097 17.8 6.0001 17.8H6.2999C6.79696 17.8 7.1999 17.3971 7.1999 16.9C7.1999 16.4029 6.79696 16 6.2999 16H6.0001C5.70836 16 5.42857 15.8841 5.22228 15.6778C5.01599 15.4715 4.9001 15.1917 4.9001 14.9V5.58328C5.24589 5.72504 5.61913 5.8 6.0001 5.8H18.0001C18.0266 5.8 18.0521 5.81054 18.0708 5.82929C18.0896 5.84804 18.1001 5.87348 18.1001 5.9C18.1001 9.23333 18.1001 12.5667 18.1001 15.9C18.1001 15.9265 18.0896 15.952 18.0708 15.9707C18.0521 15.9895 18.0266 16 18.0001 16H16.4999C16.0028 16 15.5999 16.4029 15.5999 16.9C15.5999 17.3971 16.0028 17.8 16.4999 17.8H18.0001C18.504 17.8 18.9873 17.5998 19.3436 17.2435C19.6999 16.8872 19.9001 16.4039 19.9001 15.9C19.9001 12.5663 19.9001 9.23424 19.9001 5.9C19.9001 5.39609 19.6999 4.91282 19.3436 4.5565C18.9873 4.20018 18.504 4 18.0001 4H17.9001V1.9C17.9001 1.39609 17.6999 0.912817 17.3436 0.556497C16.9873 0.200178 16.504 0 16.0001 0H6.0001ZM5.22228 3.67782C5.01599 3.47153 4.9001 3.19174 4.9001 2.9C4.9001 2.60826 5.01599 2.32847 5.22228 2.12218C5.42857 1.91589 5.70836 1.8 6.0001 1.8H16.0001C16.0266 1.8 16.0521 1.81054 16.0708 1.82929C16.0896 1.84804 16.1001 1.87348 16.1001 1.9V4H6.0001C5.70836 4 5.42857 3.88411 5.22228 3.67782Z" fill="white"/>
<path fill-rule="evenodd" clip-rule="evenodd" d="M11.7364 23.7364C11.3849 24.0879 10.8151 24.0879 10.4636 23.7364L7.46361 20.7364C7.11213 20.3849 7.11213 19.8151 7.46361 19.4636C7.81508 19.1121 8.38493 19.1121 8.7364 19.4636L10.2 20.9272L10.2 14.1C10.2 13.6029 10.6029 13.2 11.1 13.2C11.5971 13.2 12 13.6029 12 14.1L12 20.9272L13.4636 19.4636C13.8151 19.1121 14.3849 19.1121 14.7364 19.4636C15.0879 19.8151 15.0879 20.3849 14.7364 20.7364L11.7364 23.7364Z" fill="white"/>
</g>
<defs>
<clipPath id="clip0_170_76953">
<rect width="24" height="24" fill="white"/>
</clipPath>
</defs>
</svg>
