<svg width="16" height="16" viewBox="0 0 16 16" fill="none" xmlns="http://www.w3.org/2000/svg">
<g clip-path="url(#clip0_501_20100)">
<path d="M8.35887 1.94311C7.04275 1.77329 5.70729 2.0409 4.55823 2.70473C3.92821 3.0687 3.37338 3.54071 2.91658 4.09478V3.20007C2.91658 2.84108 2.62556 2.55007 2.26658 2.55007C1.90759 2.55007 1.61658 2.84108 1.61658 3.20007V5.86673C1.61658 6.22572 1.90759 6.51673 2.26658 6.51673H2.58546C2.59495 6.51694 2.60442 6.51694 2.61387 6.51673H4.93324C5.29223 6.51673 5.58324 6.22572 5.58324 5.86673C5.58324 5.50775 5.29223 5.21673 4.93324 5.21673H3.69517C4.09024 4.65319 4.60552 4.17876 5.20853 3.83039C6.11069 3.3092 7.15919 3.09909 8.19251 3.23242C9.22583 3.36575 10.1867 3.83513 10.927 4.56825C11.6673 5.30137 12.146 6.25757 12.2894 7.28954C12.3388 7.6451 12.6671 7.89329 13.0227 7.84388C13.3783 7.79446 13.6265 7.46616 13.5771 7.11059C13.3944 5.79619 12.7846 4.5783 11.8417 3.64454C10.8988 2.71077 9.675 2.11293 8.35887 1.94311ZM2.91039 8.44393C2.86098 8.08836 2.53267 7.84017 2.17711 7.88959C1.82154 7.939 1.57335 8.2673 1.62276 8.62287C1.80543 9.93727 2.41519 11.1552 3.35811 12.0889C4.30104 13.0227 5.52482 13.6205 6.84095 13.7904C8.15707 13.9602 9.49253 13.6926 10.6416 13.0287C11.2716 12.6648 11.8264 12.1928 12.2832 11.6387V12.5334C12.2832 12.8924 12.5743 13.1834 12.9332 13.1834C13.2922 13.1834 13.5832 12.8924 13.5832 12.5334V9.86673C13.5832 9.50775 13.2922 9.21673 12.9332 9.21673H12.6144C12.6049 9.21652 12.5954 9.21652 12.5859 9.21673H10.2666C9.90759 9.21673 9.61658 9.50775 9.61658 9.86673C9.61658 10.2257 9.90759 10.5167 10.2666 10.5167H11.5046C11.1096 11.0803 10.5943 11.5547 9.99129 11.9031C9.08913 12.4243 8.04063 12.6344 7.00731 12.501C5.97399 12.3677 5.01317 11.8983 4.27286 11.1652C3.53254 10.4321 3.0538 9.4759 2.91039 8.44393Z" fill="white" stroke="white" stroke-width="0.1" stroke-linecap="round" stroke-linejoin="round"/>
</g>
<defs>
<clipPath id="clip0_501_20100">
<rect width="16" height="16" fill="white"/>
</clipPath>
</defs>
</svg>
