<svg width="56" height="56" viewBox="0 0 56 56" fill="none" xmlns="http://www.w3.org/2000/svg">
<rect width="56" height="56" rx="4" fill="#1B1B1B"/>
<g clip-path="url(#clip0_141_60325)">
<path d="M20 24V22C20 21.4696 20.2107 20.9609 20.5858 20.5858C20.9609 20.2107 21.4696 20 22 20H24" stroke="white" stroke-width="2" stroke-linecap="round" stroke-linejoin="round"/>
<path d="M20 32V34C20 34.5304 20.2107 35.0391 20.5858 35.4142C20.9609 35.7893 21.4696 36 22 36H24" stroke="white" stroke-width="2" stroke-linecap="round" stroke-linejoin="round"/>
<path d="M32 20H34C34.5304 20 35.0391 20.2107 35.4142 20.5858C35.7893 20.9609 36 21.4696 36 22V24" stroke="white" stroke-width="2" stroke-linecap="round" stroke-linejoin="round"/>
<path d="M32 36H34C34.5304 36 35.0391 35.7893 35.4142 35.4142C35.7893 35.0391 36 34.5304 36 34V32" stroke="white" stroke-width="2" stroke-linecap="round" stroke-linejoin="round"/>
<path d="M23 28H33" stroke="white" stroke-width="2" stroke-linecap="round" stroke-linejoin="round"/>
</g>
<defs>
<clipPath id="clip0_141_60325">
<rect width="24" height="24" fill="white" transform="translate(16 16)"/>
</clipPath>
</defs>
</svg>
