<svg width="24" height="25" viewBox="0 0 24 25" fill="none" xmlns="http://www.w3.org/2000/svg">
<g clip-path="url(#clip0_53884_1943)">
<path fill-rule="evenodd" clip-rule="evenodd" d="M6.0001 0.25C5.23097 0.25 4.49334 0.555535 3.94949 1.09939C3.40563 1.64325 3.1001 2.38087 3.1001 3.15V15.15C3.1001 15.9191 3.40563 16.6568 3.94949 17.2006C4.49334 17.7445 5.23097 18.05 6.0001 18.05H6.2999C6.79696 18.05 7.1999 17.6471 7.1999 17.15V17.15C7.1999 16.6529 6.79696 16.25 6.2999 16.25H6.0001C5.70836 16.25 5.42857 16.1341 5.22228 15.9278C5.01599 15.7215 4.9001 15.4417 4.9001 15.15V5.83328C5.24589 5.97504 5.61913 6.05 6.0001 6.05H18.0001C18.0266 6.05 18.0521 6.06054 18.0708 6.07929C18.0896 6.09804 18.1001 6.12348 18.1001 6.15C18.1001 9.48333 18.1001 12.8167 18.1001 16.15C18.1001 16.1765 18.0896 16.202 18.0708 16.2207C18.0521 16.2395 18.0266 16.25 18.0001 16.25H16.4999C16.0028 16.25 15.5999 16.6529 15.5999 17.15V17.15C15.5999 17.6471 16.0028 18.05 16.4999 18.05H18.0001C18.504 18.05 18.9873 17.8498 19.3436 17.4935C19.6999 17.1372 19.9001 16.6539 19.9001 16.15C19.9001 12.8163 19.9001 9.48424 19.9001 6.15C19.9001 5.64609 19.6999 5.16282 19.3436 4.8065C18.9873 4.45018 18.504 4.25 18.0001 4.25H17.9001V2.15C17.9001 1.64609 17.6999 1.16282 17.3436 0.806497C16.9873 0.450178 16.504 0.25 16.0001 0.25H6.0001ZM5.22228 3.92782C5.01599 3.72153 4.9001 3.44174 4.9001 3.15C4.9001 2.85826 5.01599 2.57847 5.22228 2.37218C5.42857 2.16589 5.70836 2.05 6.0001 2.05H16.0001C16.0266 2.05 16.0521 2.06054 16.0708 2.07929C16.0896 2.09804 16.1001 2.12348 16.1001 2.15V4.25H6.0001C5.70836 4.25 5.42857 4.13411 5.22228 3.92782Z" fill="white"/>
<path fill-rule="evenodd" clip-rule="evenodd" d="M11.7364 23.9864C11.3849 24.3379 10.8151 24.3379 10.4636 23.9864L7.46361 20.9864C7.11213 20.6349 7.11213 20.0651 7.46361 19.7136C7.81508 19.3621 8.38493 19.3621 8.7364 19.7136L10.2 21.1772L10.2 14.35C10.2 13.8529 10.6029 13.45 11.1 13.45C11.5971 13.45 12 13.8529 12 14.35L12 21.1772L13.4636 19.7136C13.8151 19.3621 14.3849 19.3621 14.7364 19.7136C15.0879 20.0651 15.0879 20.6349 14.7364 20.9864L11.7364 23.9864Z" fill="white"/>
</g>
<defs>
<clipPath id="clip0_53884_1943">
<rect width="24" height="24" fill="white" transform="translate(0 0.25)"/>
</clipPath>
</defs>
</svg>
