<svg width="73" height="72" viewBox="0 0 73 72" fill="none" xmlns="http://www.w3.org/2000/svg">
<path d="M12.5 15.002C12.5 14.2063 12.8161 13.4432 13.3787 12.8806C13.9413 12.318 14.7044 12.002 15.5 12.002H27.5C28.2956 12.002 29.0587 12.318 29.6213 12.8806C30.1839 13.4432 30.5 14.2063 30.5 15.002V27.002C30.5 27.7976 30.1839 28.5607 29.6213 29.1233C29.0587 29.6859 28.2956 30.002 27.5 30.002H15.5C14.7044 30.002 13.9413 29.6859 13.3787 29.1233C12.8161 28.5607 12.5 27.7976 12.5 27.002V15.002Z" stroke="white" stroke-width="3.5" stroke-linecap="round" stroke-linejoin="round"/>
<path d="M12.5 44.998C12.5 44.2024 12.8161 43.4393 13.3787 42.8767C13.9413 42.3141 14.7044 41.998 15.5 41.998H27.5C28.2956 41.998 29.0587 42.3141 29.6213 42.8767C30.1839 43.4393 30.5 44.2024 30.5 44.998V56.998C30.5 57.7937 30.1839 58.5568 29.6213 59.1194C29.0587 59.682 28.2956 59.998 27.5 59.998H15.5C14.7044 59.998 13.9413 59.682 13.3787 59.1194C12.8161 58.5568 12.5 57.7937 12.5 56.998V44.998Z" stroke="white" stroke-width="3.5" stroke-linecap="round" stroke-linejoin="round"/>
<path d="M42.5 44.998C42.5 44.2024 42.8161 43.4393 43.3787 42.8767C43.9413 42.3141 44.7044 41.998 45.5 41.998H57.5C58.2956 41.998 59.0587 42.3141 59.6213 42.8767C60.1839 43.4393 60.5 44.2024 60.5 44.998V56.998C60.5 57.7937 60.1839 58.5568 59.6213 59.1194C59.0587 59.682 58.2956 59.998 57.5 59.998H45.5C44.7044 59.998 43.9413 59.682 43.3787 59.1194C42.8161 58.5568 42.5 57.7937 42.5 56.998V44.998Z" stroke="white" stroke-width="3.5" stroke-linecap="round" stroke-linejoin="round"/>
<path d="M42.5 21.002H60.5" stroke="white" stroke-width="3.5" stroke-linecap="round" stroke-linejoin="round"/>
<path d="M51.5 12.002V30.002" stroke="white" stroke-width="3.5" stroke-linecap="round" stroke-linejoin="round"/>
</svg>
